<?xml version="1.0" encoding="utf-8"?>
<!-- Generator: Adobe Illustrator 22.1.0, SVG Export Plug-In . SVG Version: 6.00 Build 0)  -->
<!DOCTYPE svg PUBLIC "-//W3C//DTD SVG 1.1//EN" "http://www.w3.org/Graphics/SVG/1.1/DTD/svg11.dtd">
<svg version="1.1" id="Layer_1" xmlns="http://www.w3.org/2000/svg" xmlns:xlink="http://www.w3.org/1999/xlink" x="0px" y="0px"
	 width="50px" height="50px" viewBox="0 0 50 50" enable-background="new 0 0 50 50" xml:space="preserve">
<g id="New_Symbol_79_1_">
	<g>
		<g>
			<path fill="#7E4300" d="M6.6279,39.293c-1.2959,0-1.5176-0.1172-2.0811-0.5479c-0.1104-0.084-0.2144-0.1777-0.3101-0.2783
				c-0.6543-0.6865-1.3281-1.9092-0.8213-3.8301c0.1841-0.627,0.4692-1.1348,0.7808-1.5518c-0.583-0.6562-1.1709-1.8389-0.5859-3.71
				c0.3452-1.2246,0.7422-2.0293,1.1294-2.6396c-0.6807-0.9976-0.8174-2.1514-0.4341-3.4683
				c0.4253-1.5088,1.6235-2.3872,2.8174-2.9741c-0.0435-0.6782,0.0571-1.3662,0.2314-1.9556
				c0.3438-1.2378,0.7715-2.0107,1.5122-2.7124c1.9224-1.729,12.1514-2.2964,18.8071-0.6289
				c3.4092-0.1216,6.8291-0.4326,8.9023-0.6216c2.5938-0.2363,3.248-0.2954,4.082,0.4497c1.1445,0.8579,1.7676,1.8721,1.8564,3.0186
				c0.002,0.019,0.0029,0.0386,0.0039,0.0581c0.4492,0.3247,0.7588,0.6787,0.9688,1.0356c0.4609,0.1069,0.8857,0.3179,1.2734,0.6318
				c0.791,0.6177,1.582,1.7886,1.0605,3.9097c-0.0059,0.0239-0.0127,0.0474-0.0186,0.0713
				c-0.3574,1.2964-0.7695,2.1353-1.1211,2.7134c0.8164,1.1699,0.7344,2.4551,0.4609,3.4424
				c-0.1064,0.4189-0.2246,0.7832-0.3438,1.1016c0.9277,1.3008,0.5654,3.1074,0.415,3.6836
				c-0.376,1.333-0.7939,2.1045-1.5059,2.8008c-0.9863,0.9736-2.0176,1.2178-10.6846,1.5615
				c-0.8477,0.0498-1.6699-0.3438-2.1953-1.0166c-0.5264-0.6719-0.6963-1.5557-0.458-2.375l0.0381-0.1309
				c0.0195-0.0645,0.041-0.1357,0.0635-0.2217c-0.0879-0.2471-0.1436-0.5029-0.1699-0.7695
				c-0.0879-0.1562-0.166-0.3271-0.2305-0.5127c-0.292-0.2168-0.5811-0.5156-0.8301-0.9268
				c-0.4189-0.7217-0.5576-1.5635-0.4092-2.3584c0.0625-0.3125,0.1543-0.585,0.251-0.8174
				c-0.0449-0.0117-0.0898-0.0244-0.1348-0.0391c-0.8252,0.0244-2.9111,0.8672-4.2856,1.5527
				c0.0166,0.2871-0.0063,0.585-0.0698,0.8936c-0.2124,1.0498-0.9072,1.6221-1.499,1.9561c0.1279,0.499,0.2246,1.125,0.0859,1.8271
				c-0.0835,0.4326-0.1865,0.9434-0.3408,1.4141c-0.3657,1.1162-1.4092,1.8721-2.5967,1.8271
				c-3.8276-0.1064-8.6743,0.0215-11.5693,0.0967C7.7798,39.2764,7.125,39.293,6.6279,39.293z M8.4292,36.2793L8.4292,36.2793
				L8.4292,36.2793z M9.8418,29.4297c1.3657,1.2031,1.0366,3.0889,0.8276,3.8545c-0.0596,0.2188-0.1348,0.4229-0.2212,0.6133
				c2.0903-0.0498,4.6567-0.0996,7.1201-0.0889c-0.0493-0.4316-0.0493-0.917,0.0576-1.4385
				c0.2026-1.0547,0.8574-1.7432,1.5083-2.1953c0.0107-0.0645,0.0229-0.1318,0.0366-0.2002
				c0.1133-0.5791,0.2534-1.0762,0.5654-1.6064c0.8638-1.3965,6.8643-4.3647,10.1836-3.8877
				c1.8633,0.0122,3.5293,1.1865,4.4922,3.2822c0.4746,0.9102,0.3398,1.8398,0.2705,2.2314
				c0.0127,0.0166,0.0264,0.0342,0.0391,0.0518c0.5293,0.7246,0.5947,1.5039,0.5576,2.0537
				c0.2217,0.4014,0.3428,0.8496,0.3584,1.3252c1.459-0.0713,2.6211-0.1445,3.4824-0.2168
				c-0.2949-0.6465-0.3594-1.3936-0.1768-2.1895c0.0088-0.0371,0.0186-0.0752,0.0293-0.1123
				c0.1357-0.4932,0.334-0.876,0.5088-1.2129c0.123-0.2383,0.2422-0.4668,0.3555-0.7744c-1.1475-1.2158-1.0176-2.5615-0.8057-3.3315
				c0.1787-0.7085,0.5088-1.2168,0.7803-1.5996c-0.0967-0.0654-0.1904-0.1377-0.2822-0.2163
				c-0.5703-0.4795-0.9229-1.1509-1.0381-1.9336c-0.6709-0.3306-1.4668-0.9243-1.7246-2.0527
				c-0.0068-0.0322-0.0137-0.0645-0.0205-0.0967c-2.2344,0.2031-5.7617,0.5146-9.2852,0.625
				c-0.2617,0.0088-0.5234-0.0225-0.7754-0.0908c-4.7158-1.2739-10.5757-0.9614-13.3848-0.5732
				c0.3853,0.7212,0.4644,1.5913,0.1968,2.5029c-0.4355,1.499-1.7598,2.0029-2.9277,2.4473
				c-0.1392,0.0527-0.3169,0.1206-0.5015,0.1948c0.5835,0.9937,0.5117,1.9995,0.291,2.7603
				c-0.2129,0.751-0.5811,1.2646-0.8457,1.6162C9.627,29.248,9.7363,29.334,9.8418,29.4297z M29.8711,30.4873
				c0.001,0.001,0.001,0.002,0.002,0.0029C29.8721,30.4893,29.8721,30.4883,29.8711,30.4873z M29.8701,30.4854v0.001V30.4854z
				 M28.7031,29.5947c0,0,0.001,0.001,0.002,0.001C28.7041,29.5957,28.7031,29.5947,28.7031,29.5947z M43.7744,21.2759
				c0,0.0005,0,0.0015,0,0.002C43.7744,21.2773,43.7744,21.2764,43.7744,21.2759z M37.6094,17.0254
				c0,0.0005-0.001,0.0005-0.001,0.001C37.6084,17.0259,37.6094,17.0259,37.6094,17.0254z"/>
		</g>
		<g>
			<path fill="#E2D7D1" d="M43.3566,22.8441c0.1068-0.439,0.2104-0.945-0.1339-1.1979c-0.5794-0.497-1.4726,0.4542-1.866,0.1005
				c-0.1767-0.1402-0.1736-0.6709-0.0396-1.1373c0.2791-1.0577-2.497-0.9238-1.7165-1.7043
				c1.0306-1.0303-0.2988-1.8598-0.5245-2.0365c-0.1186-0.1099-5.8628,0.6188-11.5885,0.7927
				c-7.0244-1.8994-16.1038-0.6219-16.6829-0.1099c-0.3141,0.2988-0.5426,0.6344-0.7927,1.5429
				c-0.2195,0.7499-0.1221,1.4055,0.0122,1.5426c0.1767,0.1342,0.7683-0.0487,0.9147,0.1036
				c0.0974,0.0977,0.2498,0.2288,0.1249,0.6709c-0.1723,0.6035-3.6618,1.0793-4.1038,2.5975
				c-0.5485,1.9269,1.3568,1.442,0.9666,2.811c-0.2501,0.8779-0.9878,0.945-1.6706,3.3505
				c-0.1405,0.4361-0.2348,0.9269,0.1036,1.2226c0.5607,0.5245,1.4449-0.3475,1.8292,0.0184
				c0.1829,0.1524,0.1524,0.753,0.0306,1.1739c-0.2866,1.064-1.7836,1.57-2.122,2.7286c-0.2073,0.7683-0.0306,1.1127,0.1767,1.3231
				c0.0977,0.0824,8.2867-0.2925,14.1525-0.1342c0.1221-0.3534,0.2073-0.823,0.2622-1.0974
				c0.1342-0.6831-0.5426-1.5457-0.3537-2.5001c0.1524-0.7561,1.7133-1.0062,1.7714-1.3109
				c0.0456-0.2195,0.0031-0.2744-0.0153-0.3203c-0.0365-0.0699-0.1889,0.0275-0.2379-0.0334
				c-0.0287-0.0609-0.0425-0.3812,0.0368-0.753c0.0852-0.4483,0.1583-0.6191,0.2438-0.7746
				c0.1645-0.2619,5.9389-3.3171,7.7194-2.561c1.5001-0.2285,2.2747,1.7592,2.3021,1.8142c0.0518,0.0824,0.0884,0.2438,0.015,0.616
				c-0.1096,0.5944-0.5182,0.9328-0.6188,1.4511c-0.0428,0.2316,0.0275,0.4208,0.0671,0.4877
				c0.375,0.6222,0.6615-0.2894,1.0761,0.0915c0.0852,0.1221,0.0471,0.369,0.0091,0.5854
				c-0.2682,1.3293,0.5033,0.7805,0.3812,1.4667c-0.1708,0.9663,0.384,0.5457,0.1951,1.5335
				c-0.0915,0.5151-0.1829,0.7805-0.2501,1.0059c5.2805-0.2073,8.5551-0.4327,8.9423-0.8108
				c0.3078-0.305,0.5257-0.6525,0.788-1.5732c0.1908-0.7227,0.1052-1.3752-0.0381-1.5001
				c-0.1798-0.1464-0.8048,0.0915-0.9297-0.0306c-0.0977-0.0852-0.2622-0.2073-0.1464-0.6768
				c0.1586-0.5975,0.6706-1.1096,1.0518-2.6156c0.5457-1.9818-1.3705-1.3325-0.994-2.7046
				C41.9389,25.3685,42.6891,25.268,43.3566,22.8441z"/>
		</g>
		<g>
			<path fill="#7E4300" d="M35.7895,34.2865c-0.0428-0.0581-0.1127-0.1311-0.0565-0.4299c0.0902-0.3843,0.3372-0.7227,0.5473-1.6859
				c0.2988-1.2775-0.689-0.4636-0.4327-1.7168c0.1889-0.8841-1.1829-0.2132-0.7805-1.9297
				c0.0609-0.2897,0.1065-0.6128-0.0428-0.7714c-0.7896-0.5273-1.256,0.6615-1.9725-0.1798
				c-0.0887-0.0915-0.2257-0.3415-0.1555-0.6462c0.1555-0.674,0.8779-1.0946,1.0487-1.8629
				c0.1096-0.4758,0.0365-0.6953-0.0731-0.808c-0.0428-0.0671-1.9331,0.7102-4.6586,0.9269
				c-3.3171-1.1008-6.8509-0.2014-7.1359,0.1371c-0.1477,0.1951-0.2666,0.4146-0.4068,0.994
				c-0.113,0.4848-0.0793,0.9023-0.0184,0.9878c0.0852,0.0852,0.3659-0.0428,0.4389,0.0518
				c0.0365,0.0671,0.1068,0.1371,0.0396,0.4299c-0.0884,0.384-2.9359,0.6219-3.1691,1.6038
				c-0.2972,1.2376,0.3675,1.073,0.1539,1.9512c-0.1342,0.567-0.4848,0.6157-0.8445,2.1735
				c-0.0762,0.2716-0.1342,0.5947,0.0153,0.7777c0.2682,0.3291,0.7071-0.2501,0.8779-0.0244
				c0.0915,0.0974,0.0609,0.4814-0.0059,0.753c-0.1527,0.6797-0.8782,1.0365-1.0549,1.7773
				c-0.1099,0.4939-0.0337,0.7074,0.0578,0.8414c0.0396,0.0365,2.1342-0.1676,4.3508-0.2957c-0.0031-0.1127-0.0153-0.2195,0-0.3353
				c0.2073-1.0215,0.3718-1.064,0.4452-1.442c0.1127-0.5794-0.1951-0.4514-0.0306-1.2653c0.1221-0.6494,1.4452-0.8629,1.4879-1.1189
				c0.0425-0.1892,0.0044-0.2317-0.0122-0.2744c-0.0247-0.0609-0.1617,0.0275-0.1923-0.0243
				c-0.0334-0.0549-0.0365-0.3294,0.0215-0.6463c0.0793-0.3843,0.1402-0.5307,0.2132-0.6556
				c0.1342-0.2285,3.1832-2.8963,4.6923-2.2531c1.2635-0.1889,1.5638,0.1374,1.5881,0.1798
				c0.0459,0.064,0.0734,0.2073,0.0122,0.5214c-0.0912,0.5154,0.1464-0.0731,0.0671,0.3659
				c-0.0425,0.2042,0.0215,0.3628,0.0612,0.4208c0.3153,0.5304-0.2135,1.7742,0.1402,2.1098
				c0.0671,0.0974,0.0334,0.3109,0.0059,0.4939c-0.2254,1.1339,0.4271,0.6706,0.3172,1.25c-0.148,0.823,0.3262,0.2682,0.1677,1.1096
				c-0.1189,0.6372-0.2438,0.8598-0.2835,1.1189c-0.0365,0.192-0.0122,0.241,0.0153,0.2713c0.0212,0.0518,0.1676-0.0609,0.2042,0
				c0.0106,0.0184,0.0106,0.0887,0.0106,0.1555c2.2547-0.2713,4.2119-0.8351,4.3798-1.0577
				c0.1555-0.1982,0.2682-0.4268,0.4084-1.0121c0.1036-0.4695,0.0734-0.8904,0.0062-0.9634
				C36.1523,34.1981,35.8567,34.3626,35.7895,34.2865z"/>
		</g>
	</g>
</g>
</svg>
